{
  "asset": {
    "version": "2.0",
    "generator": "THREE.GLTFExporter"
  },
  "scenes": [
    {
      "nodes": [
        6
      ],
      "name": "AuxScene"
    }
  ],
  "scene": 0,
  "nodes": [
    {
      "name": "Geometry1_0",
      "mesh": 0
    },
    {
      "name": "Geometry1_1",
      "mesh": 1
    },
    {
      "name": "Geometry1_2",
      "mesh": 2
    },
    {
      "name": "VisualSceneNode1",
      "children": [
        0,
        1,
        2
      ]
    },
    {
      "matrix": [
        1,
        0,
        0,
        0,
        0,
        2.220446049250313e-16,
        -1,
        0,
        0,
        1,
        2.220446049250313e-16,
        0,
        0,
        0,
        0,
        1
      ],
      "name": "Z_UP",
      "children": [
        3
      ]
    },
    {
      "name": "entity_1",
      "children": [
        4
      ]
    },
    {
      "name": "entity_0",
      "children": [
        5
      ]
    }
  ],
  "bufferViews": [
    {
      "buffer": 0,
      "byteOffset": 0,
      "byteLength": 141252,
      "target": 34962,
      "byteStride": 12
    },
    {
      "buffer": 0,
      "byteOffset": 141252,
      "byteLength": 141252,
      "target": 34962,
      "byteStride": 12
    },
    {
      "buffer": 0,
      "byteOffset": 282504,
      "byteLength": 44940,
      "target": 34963
    },
    {
      "buffer": 0,
      "byteOffset": 327444,
      "byteLength": 30072,
      "target": 34962,
      "byteStride": 12
    },
    {
      "buffer": 0,
      "byteOffset": 357516,
      "byteLength": 30072,
      "target": 34962,
      "byteStride": 12
    },
    {
      "buffer": 0,
      "byteOffset": 387588,
      "byteLength": 8472,
      "target": 34963
    },
    {
      "buffer": 0,
      "byteOffset": 396060,
      "byteLength": 2808,
      "target": 34962,
      "byteStride": 12
    },
    {
      "buffer": 0,
      "byteOffset": 398868,
      "byteLength": 2808,
      "target": 34962,
      "byteStride": 12
    },
    {
      "buffer": 0,
      "byteOffset": 401676,
      "byteLength": 816,
      "target": 34963
    }
  ],
  "buffers": [
    {
      "byteLength": 402492,
      "uri": "data:application/octet-stream;base64,"
    }
  ],
  "accessors": [
    {
      "bufferView": 0,
      "componentType": 5126,
      "count": 11771,
      "max": [
        1,
        1,
        1
      ],
      "min": [
        -1,
        -1,
        -1
      ],
      "type": "VEC3"
    },
    {
      "bufferView": 1,
      "componentType": 5126,
      "count": 11771,
      "max": [
        0.054999999701976776,
        0.029999999329447746,
        0.06499999761581421
      ],
      "min": [
        -0.054999999701976776,
        0,
        -0.04500000178813934
      ],
      "type": "VEC3"
    },
    {
      "bufferView": 2,
      "componentType": 5123,
      "count": 22470,
      "max": [
        11770
      ],
      "min": [
        0
      ],
      "type": "SCALAR"
    },
    {
      "bufferView": 3,
      "componentType": 5126,
      "count": 2506,
      "max": [
        1,
        1,
        1
      ],
      "min": [
        -1,
        -1,
        -1
      ],
      "type": "VEC3"
    },
    {
      "bufferView": 4,
      "componentType": 5126,
      "count": 2506,
      "max": [
        0.057500001043081284,
        0.029999999329447746,
        0.06750000268220901
      ],
      "min": [
        -0.057500001043081284,
        -0.0026000000070780516,
        -0.04749999940395355
      ],
      "type": "VEC3"
    },
    {
      "bufferView": 5,
      "componentType": 5123,
      "count": 4236,
      "max": [
        2505
      ],
      "min": [
        0
      ],
      "type": "SCALAR"
    },
    {
      "bufferView": 6,
      "componentType": 5126,
      "count": 234,
      "max": [
        1,
        1,
        1
      ],
      "min": [
        -1,
        -1,
        -1
      ],
      "type": "VEC3"
    },
    {
      "bufferView": 7,
      "componentType": 5126,
      "count": 234,
      "max": [
        0.02500000037252903,
        0.02148200012743473,
        0.052000001072883606
      ],
      "min": [
        -0.03099999949336052,
        0.004999999888241291,
        0.004000000189989805
      ],
      "type": "VEC3"
    },
    {
      "bufferView": 8,
      "componentType": 5123,
      "count": 408,
      "max": [
        233
      ],
      "min": [
        0
      ],
      "type": "SCALAR"
    }
  ],
  "materials": [
    {
      "pbrMetallicRoughness": {
        "baseColorFactor": [
          0.47843098640441895,
          0.4666669964790344,
          0.4666669964790344,
          1
        ],
        "metallicFactor": 0,
        "roughnessFactor": 1
      },
      "doubleSided": true,
      "name": "Material1-effect"
    },
    {
      "pbrMetallicRoughness": {
        "baseColorFactor": [
          0.02745099924504757,
          0.02745099924504757,
          0.02745099924504757,
          1
        ],
        "metallicFactor": 0,
        "roughnessFactor": 1
      },
      "doubleSided": true,
      "name": "Material2-effect"
    },
    {
      "pbrMetallicRoughness": {
        "baseColorFactor": [
          0.6274510025978088,
          0.6274510025978088,
          0.6274510025978088,
          1
        ],
        "metallicFactor": 0,
        "roughnessFactor": 1
      },
      "doubleSided": true,
      "name": "Material3-effect"
    }
  ],
  "meshes": [
    {
      "primitives": [
        {
          "mode": 4,
          "attributes": {
            "NORMAL": 0,
            "POSITION": 1
          },
          "indices": 2,
          "material": 0
        }
      ]
    },
    {
      "primitives": [
        {
          "mode": 4,
          "attributes": {
            "NORMAL": 3,
            "POSITION": 4
          },
          "indices": 5,
          "material": 1
        }
      ]
    },
    {
      "primitives": [
        {
          "mode": 4,
          "attributes": {
            "NORMAL": 6,
            "POSITION": 7
          },
          "indices": 8,
          "material": 2
        }
      ]
    }
  ]
}
